<svg width="418" height="420" viewBox="0 0 418 420" fill="none" xmlns="http://www.w3.org/2000/svg">
<path d="M248.224 200.454V415.007" stroke="#2A272D" stroke-width="1.9882" stroke-miterlimit="10"/>
<path d="M392.999 200.454V415.007" stroke="#2A272D" stroke-width="1.9882" stroke-miterlimit="10"/>
<path d="M162.623 266.715C162.623 266.715 190.404 259.964 194.587 279.351C198.199 295.986 160.413 295.35 160.413 295.35L77.3311 295.885C77.3311 295.885 46.0327 299.757 30.5618 261.06C15.0909 222.363 0.190374 121.022 0.190374 121.022C0.190374 121.022 -2.04352 107.087 8.79324 105.049C21.5312 102.655 24.0265 132.155 24.0265 132.155C24.0265 132.155 43.276 257.239 71.2235 263.353C75.5249 264.295 78.9471 267.785 83.3435 267.734L162.623 266.715Z" fill="#FFEEE3"/>
<path d="M236.46 165.68L262.697 163.744C264.836 163.591 266.879 164.636 268.091 166.496L282.754 190.264L270.278 190.901L263.243 179.31C263.243 179.31 242.972 184.736 235.486 179.31L236.46 165.68Z" fill="#F2C09E"/>
<path d="M130.778 88.6687L165.831 158.496L238.671 160.993V186.672L161.744 190.29C151.572 190.774 141.924 185.551 136.22 176.507L101.215 109.125L130.778 88.6687Z" fill="#EFC375"/>
<path d="M238.671 160.967V186.647L230.543 187.029V160.687L238.671 160.967Z" fill="#F7E5DA"/>
<path d="M200.504 367.954L204.615 398.83L225.338 397.454L222.368 365.585L200.504 367.954Z" fill="#FCC9A7"/>
<path d="M199.981 395.697C200.433 394.245 202.049 393.659 203.213 394.55C205.495 396.283 209.511 398.346 215.286 397.556C221.298 396.741 223.414 393.302 224.15 390.882C224.53 389.608 225.814 388.92 226.978 389.404L264.337 405.097C266.618 406.04 268.424 407.925 269.398 410.32C270.302 412.561 268.804 415.083 266.499 415.134L203.237 416.128C200.742 416.179 198.746 413.963 198.841 411.288L199.292 398.193C199.292 397.964 199.34 397.76 199.411 397.556L199.981 395.697Z" fill="#1F252A"/>
<path d="M137.551 82.682L143.492 92.8975C143.873 93.8656 144.039 96.2093 142.399 97.0755L140.094 98.8588L135.151 90.7576L137.551 82.682Z" fill="#FFEEE3"/>
<path d="M126.477 93.4835L124.599 92.5155C118.42 89.2801 115.854 81.2809 118.872 74.6573L138.93 30.636L161.197 42.3037L138.026 91.5984C135.555 97.0755 131.586 96.1584 126.477 93.4835Z" fill="#FCC9A7"/>
<path d="M177.809 50.9907C171.274 65.3079 155.137 71.2691 141.781 64.2634C128.426 57.2577 122.865 39.9854 129.4 25.6428C135.935 11.3257 152.048 5.36453 165.427 12.3702C178.807 19.3759 184.344 36.6736 177.809 50.9907Z" fill="#FCC9A7"/>
<path d="M145.299 79.4721C138.953 76.1603 136.315 67.9318 139.429 61.1299L150.741 36.2915L178.023 50.5831L168.802 70.836C164.524 80.16 153.997 84.0577 145.299 79.4721Z" fill="#FCC9A7"/>
<path d="M174.481 56.417L175.955 67.5242C176.074 69.282 174.339 70.4284 172.818 69.6387L166.116 67.6771L174.481 56.417Z" fill="#FCC9A7"/>
<path d="M150.859 50.8633C150.859 50.8633 160.294 51.5257 161.839 35.9094C161.839 35.9094 178.237 47.1185 184.914 42.6603C184.914 42.6603 186.958 -1.51381 152.903 0.0401818C118.848 1.59417 116.187 41.0044 116.187 41.0044L135.293 59.4995L150.859 50.8633Z" fill="#1C2226"/>
<path d="M152.214 51.5002C150.432 55.4489 145.988 57.0793 142.304 55.1432C138.644 53.207 137.1 48.4686 138.906 44.52C140.688 40.5713 145.132 38.9409 148.816 40.877C152.475 42.8131 153.996 47.5515 152.214 51.5002Z" fill="#FCC9A7"/>
<path d="M131.42 45.6409L126.358 58.3021C126.358 58.3021 137.48 67.8553 143.088 55.5508L135.008 53.1052L131.42 45.6409Z" fill="#1C2226"/>
<path d="M161.839 35.9094C161.839 35.9094 184.059 54.3025 192.828 38.89C199.815 26.5854 192.044 18.6117 180.827 20.5988C175.979 21.4649 173.579 17.9493 169.776 15.1725L161.839 35.9094Z" fill="#1C2226"/>
<path d="M141.876 105.024C141.876 105.024 141.377 93.7892 138.05 89.8914C134.723 85.9937 116.995 75.2432 116.995 75.2432C116.995 75.2432 91.4949 83.166 75.8338 114.399C63.6425 138.728 52.1641 200.301 52.1641 200.301L125.74 211.74C132.085 165.731 143.968 144.765 141.876 105.024Z" fill="#FFD686"/>
<path d="M118.23 73.0778L115.165 74.5554C114.071 75.0903 113.834 76.6698 114.737 77.536L134.176 96.082C134.961 96.8462 136.197 96.617 136.743 95.6489L138.929 91.5983C139.333 90.8341 139.167 89.866 138.525 89.3056L119.941 73.358C119.466 72.8995 118.801 72.7976 118.23 73.0778Z" fill="#FFEEE3"/>
<path d="M228.357 169.858L254.593 167.922C256.732 167.769 258.776 168.814 259.988 170.674L273.439 191.181L260.867 192.913L255.14 183.462C255.14 183.462 234.868 188.888 227.382 183.462L228.357 169.858Z" fill="#FCC9A7"/>
<path d="M115.878 93.8656L155.47 165.477L230.567 167.693V190.85L149.529 194.646C141.924 195.002 134.676 191.105 130.398 184.328L86.3142 114.322L115.878 93.8656Z" fill="#FFD686"/>
<path d="M230.567 167.693V190.825L222.439 191.207V167.693H230.567Z" fill="#FFEEE3"/>
<path d="M52.1641 200.301L196.892 222.796C207.966 224.528 216.522 234.133 217.591 246.08L228.38 378.221L196.06 380.463L180.518 265.926L89.6413 268.448C64.9734 268.448 46.0566 244.96 49.6451 218.796L52.1641 200.301Z" fill="#54585A"/>
<path d="M308.682 190.29H232.349V195.588H308.682V190.29Z" fill="#2A272D"/>
<path d="M308.706 195.588L333.397 118.271L328.216 116.946L304 191.207L308.706 195.588Z" fill="#2A272D"/>
<path d="M144.086 78.7588C144.086 78.7588 137.218 74.4025 137.218 65.2314C137.218 65.2314 132.941 75.1667 141.662 83.9048L144.086 78.7588Z" fill="#F2C09E"/>
<path d="M31.4173 420C32.558 420 33.6036 419.159 33.9126 417.911L71.6987 258.207C74.8356 244.985 85.8863 235.737 98.6242 235.737C110.982 235.737 121.961 244.628 125.336 257.366C138.549 307.272 169.301 416.153 169.61 417.249C170.014 418.701 171.463 419.542 172.818 419.083C174.173 418.65 174.957 417.096 174.529 415.644C174.22 414.548 143.468 305.718 130.279 255.863C126.287 240.756 113.263 230.209 98.6005 230.209C83.5098 230.209 70.3916 241.164 66.6843 256.831L28.8982 416.561C28.5417 418.039 29.3735 419.542 30.7519 419.924C30.9895 419.975 31.2034 420 31.4173 420Z" fill="#1F252A"/>
<path d="M130.422 184.303L107.726 148.306" stroke="#EFC375" stroke-width="0.7847" stroke-miterlimit="10" stroke-linecap="round" stroke-linejoin="round"/>
<path d="M418 195.588H220.253V205.142H418V195.588Z" fill="#FFEEE3"/>
<path d="M248.224 228.35H392.999" stroke="#2A272D" stroke-width="1.9882" stroke-miterlimit="10"/>
<path d="M143.73 142.472L121.985 104.896" stroke="#EFC375" stroke-width="0.7847" stroke-miterlimit="10" stroke-linecap="round" stroke-linejoin="round"/>
</svg>
