<svg width="100" height="100" viewBox="0 0 100 100" fill="none" xmlns="http://www.w3.org/2000/svg">
<g clip-path="url(#clip0_86_989)">
<path d="M17.7083 8.06015e-06H82.2917C84.6178 -0.00224053 86.9215 0.466009 89.0709 1.37796C91.2204 2.28991 93.1734 3.62765 94.8182 5.31463C96.463 7.00162 97.7673 9.00471 98.6565 11.2093C99.5456 13.4139 100.002 15.7766 100 18.1624V81.8376C100.002 84.2234 99.5456 86.5861 98.6565 88.7907C97.7673 90.9953 96.463 92.9984 94.8182 94.6854C93.1734 96.3723 91.2204 97.7101 89.0709 98.622C86.9215 99.534 84.6178 100.002 82.2917 100H17.7083C15.3822 100.002 13.0785 99.534 10.9291 98.622C8.7796 97.7101 6.82658 96.3723 5.18177 94.6854C3.53696 92.9984 2.23266 90.9953 1.34351 88.7907C0.454359 86.5861 -0.00218452 84.2234 7.85865e-06 81.8376V18.1624C-0.00218452 15.7766 0.454359 13.4139 1.34351 11.2093C2.23266 9.00471 3.53696 7.00162 5.18177 5.31463C6.82658 3.62765 8.7796 2.28991 10.9291 1.37796C13.0785 0.466009 15.3822 -0.00224053 17.7083 8.06015e-06Z" fill="#F0F0F0"/>
<path d="M50.0063 88.7454L27.5127 82.501L22.5 26.2788H77.58L72.5621 82.4923L50.0063 88.7454Z" fill="#264DE4"/>
<path d="M68.2663 78.9128L72.5542 30.8757H50.04V83.9657L68.2663 78.9128Z" fill="#2965F1"/>
<path d="M33.9914 51.7278L34.6093 58.6232H50.04V51.7278H33.9914ZM32.7495 37.7714L33.3763 44.6668H50.04V37.7714H32.7495ZM50.04 69.636L50.0098 69.644L42.3304 67.5704L41.8394 62.071H34.9174L35.8834 72.8979L50.0082 76.8188L50.04 76.8101V69.636Z" fill="#EBEBEB"/>
<path d="M35.4628 11H43.814V14.4925H38.9553V17.985H43.8145V21.4773H35.4628V11ZM45.4845 11H53.836V14.0369H48.977V14.6443H53.836V21.6293H45.4847V18.4402H50.3437V17.8328H45.4843V11H45.4845ZM55.5065 11H63.858V14.0369H58.999V14.6443H63.858V21.6293H55.5065V18.4402H60.3655V17.8328H55.5067V11H55.5065Z" fill="black"/>
<path d="M66.0445 51.7278L67.2892 37.7714H50.0162V44.6668H59.7324L59.105 51.7278H50.0162V58.6232H58.5072L57.7066 67.5661L50.016 69.6418V76.8155L64.1521 72.8979L64.2557 71.7329L65.8763 53.5794L66.0445 51.7278Z" fill="white"/>
</g>
<defs>
<clipPath id="clip0_86_989">
<rect width="100" height="100" fill="white"/>
</clipPath>
</defs>
</svg>
