<svg width="60" height="45" viewBox="0 0 60 45" fill="none" xmlns="http://www.w3.org/2000/svg">
<path fill-rule="evenodd" clip-rule="evenodd" d="M57.1896 0H1.81262L29.1415 26.4562L57.1896 0ZM0 2.02498V43.8174C3.77405 40.2208 7.95619 36.2552 11.7197 32.7238C14.7742 29.8577 17.5582 27.2728 19.6259 25.4023C20.5704 24.5479 21.3735 23.8353 21.988 23.3108L0 2.02498ZM2.6935 45H56.9067L34.6974 24.9453L30.1306 29.2529L29.1153 30.2105L28.1136 29.2407L23.9392 25.1997C23.3515 25.6998 22.5543 26.4063 21.5884 27.28C19.5396 29.1335 16.7701 31.7048 13.7188 34.5679C10.1855 37.8831 6.28141 41.583 2.6935 45ZM59.1176 43.3467V1.91105L36.6743 23.0806L59.1176 43.3467Z" fill="white"/>
</svg>
