<svg width="100" height="97" viewBox="0 0 100 97" fill="none" xmlns="http://www.w3.org/2000/svg">
<g clip-path="url(#clip0_86_1001)">
<path d="M17.7083 7.78759e-06H82.2917C84.6178 -0.00216476 86.9215 0.45025 89.0709 1.33136C91.2204 2.21247 93.1734 3.50498 94.8182 5.13491C96.463 6.76485 97.7673 8.70021 98.6565 10.8302C99.5456 12.9603 100.002 15.2431 100 17.5482V79.0701C100.002 81.3752 99.5456 83.6581 98.6565 85.7881C97.7673 87.9181 96.463 89.8535 94.8182 91.4834C93.1734 93.1134 91.2204 94.4059 89.0709 95.287C86.9215 96.1681 84.6178 96.6205 82.2917 96.6183H17.7083C15.3822 96.6205 13.0785 96.1681 10.9291 95.287C8.7796 94.4059 6.82658 93.1134 5.18177 91.4834C3.53696 89.8535 2.23266 87.9181 1.34351 85.7881C0.454359 83.6581 -0.00218452 81.3752 7.85865e-06 79.0701V17.5482C-0.00218452 15.2431 0.454359 12.9603 1.34351 10.8302C2.23266 8.70021 3.53696 6.76485 5.18177 5.13491C6.82658 3.50498 8.7796 2.21247 10.9291 1.33136C13.0785 0.45025 15.3822 -0.00216476 17.7083 7.78759e-06Z" fill="#F7DF1E"/>
<path d="M67.3444 75.6C69.3587 78.7776 71.9794 81.1134 76.6143 81.1134C80.5079 81.1134 82.9952 79.2331 82.9952 76.6352C82.9952 73.5219 80.4397 72.4192 76.154 70.608L73.8048 69.6342C67.0238 66.843 62.519 63.3463 62.519 55.9542C62.519 49.145 67.8889 43.9613 76.281 43.9613C82.2556 43.9613 86.5508 45.9704 89.646 51.2307L82.3286 55.7702C80.7175 52.979 78.9794 51.8794 76.281 51.8794C73.5286 51.8794 71.7841 53.5664 71.7841 55.7702C71.7841 58.4939 73.5302 59.5966 77.5619 61.2836L79.9111 62.2559C87.8952 65.5639 92.4032 68.9364 92.4032 76.5186C92.4032 84.6928 85.7571 89.171 76.8317 89.171C68.1048 89.171 62.4667 85.1529 59.7079 79.8865L67.3444 75.6ZM34.1492 76.3867C35.6254 78.9172 36.9683 81.0566 40.1968 81.0566C43.2841 81.0566 45.2317 79.8895 45.2317 75.3515V44.4797H54.6286V75.4742C54.6286 84.8753 48.9238 89.1542 40.5968 89.1542C33.073 89.1542 28.7159 85.3922 26.5 80.8611L34.1492 76.3867Z" fill="black"/>
</g>
<defs>
<clipPath id="clip0_86_1001">
<rect width="100" height="96.6184" fill="white"/>
</clipPath>
</defs>
</svg>
