<svg width="100" height="100" viewBox="0 0 100 100" fill="none" xmlns="http://www.w3.org/2000/svg">
<rect width="100" height="100" rx="19" fill="#F0F0F0"/>
<mask id="mask0_86_1009" style="mask-type:luminance" maskUnits="userSpaceOnUse" x="82" y="45" width="17" height="19">
<path d="M82.8 45.9998H98.2698V63.4664H82.8V45.9998Z" fill="white"/>
</mask>
<g mask="url(#mask0_86_1009)">
<path d="M90.5439 46.0012C90.3087 46.0012 90.0801 46.0497 89.8777 46.1642L83.4764 49.8627C83.0624 50.1015 82.8105 50.5525 82.8105 51.0322V58.4161C82.8105 58.8955 83.0624 59.346 83.4764 59.5853L85.1483 60.5491C85.9605 60.9499 86.26 60.9434 86.6298 60.9434C87.8322 60.9434 88.5186 60.2135 88.5186 58.9445V51.6593C88.5186 51.5564 88.4296 51.4827 88.3285 51.4827H87.5267C87.4238 51.4827 87.3363 51.5583 87.3363 51.6593V58.9478C87.3363 59.5101 86.7509 60.076 85.8007 59.6004L84.0629 58.5806C84.0014 58.5473 83.954 58.4861 83.954 58.4176V51.0338C83.954 50.9637 84.0009 50.8924 84.0629 50.857L90.4507 47.1718C90.5105 47.1374 90.5819 47.1374 90.641 47.1718L97.0288 50.857C97.0897 50.8934 97.1376 50.9616 97.1376 51.0338V58.4176C97.1376 58.4882 97.1025 58.5603 97.0426 58.5945L90.6413 62.2796C90.5845 62.3124 90.509 62.3124 90.4509 62.2796L88.8064 61.3007C88.7572 61.2721 88.6905 61.2741 88.6434 61.3007C88.1895 61.558 88.104 61.5879 87.6785 61.7359C87.5736 61.7723 87.4139 61.8291 87.7329 62.008L89.8803 63.2741C90.0848 63.3924 90.3124 63.4507 90.5462 63.4507C90.7835 63.4507 91.0077 63.3942 91.2124 63.2741L97.6137 59.5887C98.028 59.3476 98.2798 58.8989 98.2798 58.4195V51.0356C98.2798 50.5559 98.028 50.1059 97.6137 49.8661L91.2124 46.1676C91.0118 46.053 90.7816 46.0046 90.5462 46.0046L90.5439 46.0012ZM92.2564 51.2773C90.4335 51.2773 89.348 52.0536 89.348 53.3442C89.348 54.7426 90.4254 55.1291 92.1749 55.302C94.2678 55.5072 94.4311 55.8148 94.4311 56.2267C94.4311 56.9418 93.8616 57.2465 92.5147 57.2465C90.823 57.2465 90.4512 56.8241 90.3267 55.9804C90.3118 55.89 90.2423 55.8174 90.1501 55.8174H89.3189C89.2939 55.8179 89.2699 55.8231 89.2467 55.833C89.2238 55.8426 89.2033 55.8564 89.1855 55.8741C89.1678 55.8921 89.154 55.9124 89.1444 55.9353C89.1345 55.9585 89.1293 55.9825 89.1288 56.0077C89.1288 57.0853 89.7147 58.3601 92.5129 58.3601C94.5384 58.3601 95.7069 57.5663 95.7069 56.1708C95.7069 54.7911 94.7632 54.4181 92.7983 54.158C90.815 53.8934 90.6238 53.7668 90.6238 53.3012C90.6238 52.9171 90.7842 52.4036 92.2548 52.4036C93.5681 52.4036 94.0535 52.6872 94.2527 53.5731C94.2702 53.6562 94.3434 53.7241 94.4293 53.7241H95.2605C95.3113 53.7241 95.3608 53.6929 95.3965 53.6562C95.4311 53.6171 95.4559 53.5731 95.4509 53.5202C95.3225 51.9942 94.3053 51.2765 92.2569 51.2765L92.2564 51.2773Z" fill="#83CD29"/>
</g>
<mask id="mask1_86_1009" style="mask-type:luminance" maskUnits="userSpaceOnUse" x="1" y="36" width="77" height="28">
<path d="M1.71875 36.2671H77.799V63.6004H1.71875V36.2671Z" fill="white"/>
</mask>
<g mask="url(#mask1_86_1009)">
<path d="M52.9092 36.3219C52.8365 36.3221 52.7686 36.3401 52.7053 36.3763C52.6746 36.3945 52.6464 36.4161 52.6212 36.4414C52.5959 36.4669 52.5746 36.495 52.5566 36.526C52.5386 36.557 52.5251 36.5898 52.5157 36.6245C52.5066 36.6589 52.5016 36.6943 52.5016 36.7299V47.1323C52.5016 47.2344 52.454 47.3258 52.3654 47.3771C52.3214 47.4029 52.2738 47.4156 52.2227 47.4156C52.1717 47.4156 52.1243 47.4029 52.08 47.3771L50.3811 46.3982C50.3194 46.3622 50.2537 46.3352 50.1845 46.3164C50.1154 46.2979 50.0451 46.2885 49.9735 46.2885C49.9019 46.2885 49.8316 46.2979 49.7623 46.3164C49.6933 46.3352 49.6277 46.3622 49.5657 46.3982L42.7845 50.3143C42.5308 50.4604 42.3764 50.7422 42.3764 51.0349V58.8672C42.3761 58.9388 42.3855 59.0094 42.404 59.0786C42.4225 59.1477 42.4496 59.2135 42.4852 59.2755C42.5212 59.3375 42.5644 59.394 42.6149 59.4445C42.6657 59.4953 42.722 59.5385 42.7842 59.5742L49.5662 63.4904C49.6279 63.5266 49.6936 63.5536 49.7628 63.5724C49.8319 63.5909 49.9022 63.6003 49.9738 63.6003C50.0454 63.6003 50.1157 63.5909 50.185 63.5724C50.254 63.5536 50.3196 63.5266 50.3816 63.4904L57.1636 59.5742C57.2256 59.5385 57.2819 59.4953 57.3326 59.4445C57.3834 59.394 57.4266 59.3375 57.4623 59.2755C57.4983 59.2135 57.5253 59.1477 57.5438 59.0786C57.5623 59.0094 57.5714 58.9388 57.5714 58.8672V39.3406C57.5714 39.0435 57.4092 38.7648 57.1501 38.62L53.1134 36.3617C53.0498 36.3266 52.9798 36.3203 52.9095 36.3208L52.9092 36.3219ZM9.2816 46.0987C9.15217 46.1042 9.03082 46.1266 8.91467 46.194L2.1329 50.1102C2.07066 50.1458 2.01441 50.1891 1.96363 50.2396C1.91285 50.2904 1.86962 50.3466 1.83394 50.4086C1.798 50.4708 1.77092 50.5365 1.75269 50.6057C1.7342 50.675 1.72509 50.7456 1.72535 50.8172L1.73915 61.3286C1.73915 61.475 1.81467 61.6107 1.94306 61.682C2.0691 61.7575 2.22535 61.7575 2.35061 61.682L6.37352 59.3703C6.62873 59.219 6.79488 58.9552 6.79488 58.6635V53.7542C6.79488 53.4612 6.94878 53.1927 7.20295 53.0471L8.91545 52.0547C9.04149 51.9812 9.17717 51.945 9.323 51.9458C9.46884 51.9448 9.60477 51.9812 9.73082 52.0547L11.4425 53.0466C11.6964 53.1922 11.8503 53.4609 11.8503 53.7534V58.6622C11.8503 58.9544 12.0204 59.2198 12.2714 59.3693L16.2944 61.681C16.4209 61.7565 16.5769 61.7565 16.7022 61.681C16.8266 61.6091 16.9061 61.4734 16.9061 61.3276L16.9196 50.8164C16.9201 50.7445 16.911 50.6742 16.8928 50.6047C16.8743 50.5354 16.8475 50.4698 16.8115 50.4075C16.7756 50.3456 16.7324 50.2891 16.6816 50.2385C16.6308 50.188 16.5743 50.1448 16.5121 50.1094L9.7303 46.1945C9.61571 46.1273 9.49358 46.1047 9.36337 46.0992H9.28212L9.2816 46.0987ZM70.2235 46.194C70.0777 46.1937 69.9417 46.2299 69.8157 46.3029L63.0337 50.2193C62.7806 50.3656 62.6256 50.6333 62.6256 50.926V58.7583C62.6256 59.0529 62.7915 59.3195 63.047 59.4651L69.7746 63.3016C70.0227 63.4435 70.3261 63.4542 70.5764 63.3148L74.6537 61.044C74.7829 60.9721 74.8704 60.838 74.8709 60.6906C74.8712 60.5432 74.7946 60.4104 74.6667 60.3372L67.8438 56.4208C67.7162 56.3479 67.6266 56.2003 67.6266 56.0536V53.6044C67.6266 53.4581 67.7173 53.324 67.8438 53.251L69.9641 52.0271C70.0902 51.9542 70.2451 51.9542 70.3722 52.0271L72.4972 53.251C72.5282 53.2687 72.5563 53.2904 72.5819 53.3156C72.6071 53.3409 72.6287 53.3693 72.6467 53.4003C72.6647 53.4312 72.6782 53.4641 72.6873 53.4987C72.6964 53.5333 72.7011 53.5685 72.7011 53.6044V55.5352C72.7009 55.5711 72.7056 55.6062 72.7147 55.6409C72.724 55.6755 72.7376 55.7083 72.7553 55.7393C72.7733 55.7706 72.7949 55.7987 72.8201 55.824C72.8457 55.8492 72.8738 55.8708 72.9048 55.8888C73.0319 55.962 73.186 55.9625 73.3128 55.8888L77.3761 53.5227C77.6282 53.3758 77.7839 53.1073 77.7839 52.8156V50.9258C77.7839 50.8542 77.7748 50.7838 77.7563 50.7146C77.7378 50.6453 77.7105 50.5797 77.6748 50.5177C77.6389 50.4555 77.5957 50.3992 77.5451 50.3484C77.4946 50.2979 77.4381 50.2547 77.3761 50.2187L70.635 46.3026C70.5089 46.2294 70.373 46.1932 70.2272 46.1937L70.2235 46.194ZM49.9454 52.0414C49.9839 52.0411 50.0201 52.0503 50.0542 52.0685L52.3782 53.4146C52.4412 53.451 52.4871 53.5185 52.4871 53.5914V56.2836C52.4871 56.3568 52.4417 56.4242 52.3782 56.4604L50.0542 57.8065C49.991 57.8424 49.9136 57.8424 49.8501 57.8065L47.5261 56.4604C47.4628 56.424 47.4173 56.3565 47.4173 56.2836V53.5922C47.4173 53.519 47.4631 53.4523 47.5261 53.4154L49.8501 52.0693C49.8819 52.051 49.91 52.0424 49.9454 52.0424V52.0414Z" fill="#404137"/>
</g>
<path d="M29.6553 46.1536C29.5094 46.1533 29.3735 46.1895 29.2472 46.2624L22.4652 50.165C22.2118 50.3114 22.0576 50.5931 22.0576 50.8856V58.7179C22.0574 58.7895 22.0665 58.8601 22.085 58.9293C22.1035 58.9986 22.1305 59.0642 22.1662 59.1262C22.2022 59.1885 22.2454 59.2447 22.2959 59.2952C22.3467 59.346 22.4032 59.389 22.4652 59.4247L29.2472 63.3411C29.3092 63.377 29.3745 63.4043 29.4438 63.4228C29.5128 63.4416 29.5834 63.451 29.655 63.451C29.7264 63.451 29.7969 63.4416 29.866 63.4228C29.9352 63.4043 30.0006 63.377 30.0626 63.3411L36.8446 59.4247C36.9066 59.389 36.9631 59.3458 37.0136 59.2952C37.0644 59.2445 37.1076 59.1882 37.1433 59.126C37.1792 59.064 37.2063 58.9984 37.2248 58.9291C37.2433 58.8598 37.2524 58.7895 37.2524 58.7179V50.8859C37.2524 50.5931 37.0982 50.3114 36.8443 50.1653L30.0623 46.2627C29.9363 46.1895 29.8003 46.1533 29.6545 46.1538L29.6553 46.1536ZM70.2113 53.1429C70.1842 53.1429 70.1542 53.1429 70.1297 53.1562L68.8248 53.9179C68.8003 53.9314 68.7805 53.9504 68.7659 53.9749C68.7514 53.9991 68.7438 54.0254 68.7433 54.0536V55.5494C68.7433 55.6059 68.7761 55.6572 68.8248 55.6856L70.1297 56.4335C70.1524 56.4476 70.1774 56.4546 70.2042 56.4546C70.2311 56.4546 70.2561 56.4476 70.279 56.4335L71.5837 55.6856C71.6318 55.6577 71.6652 55.6059 71.6652 55.5494V54.0536C71.6652 53.9973 71.6321 53.946 71.5837 53.9176L70.279 53.1559C70.2547 53.1416 70.2381 53.1426 70.211 53.1426L70.2113 53.1429Z" fill="#83CD29"/>
</svg>
