<svg width="71" height="87" viewBox="0 0 71 87" fill="none" xmlns="http://www.w3.org/2000/svg">
<g filter="url(#filter0_d_86_1101)">
<path d="M23.3961 29.3175C24.9861 44.1128 28.7823 50.8042 40.4339 59.828L32.7762 66.3798C19.541 55.4381 15.079 41.4433 13.913 31.0993L23.3961 29.3175Z" fill="white"/>
<path d="M32.2319 11.6429C34.8917 12.295 36.361 15.0097 35.5557 17.4683C34.2884 21.3373 33.8832 24.2556 33.822 27.9829C33.7884 30.0303 32.2829 31.7429 30.3534 32.6068C27.7529 33.7712 25.549 35.5315 23.7616 37.0742C21.2843 39.2125 15.031 37.4556 14.3424 34.2817C12.9274 27.7589 13.6549 16.5729 19.6386 10.3846C20.5785 9.41252 22.0493 9.14678 23.4208 9.48301L32.2319 11.6429Z" fill="white"/>
<path d="M61.8507 64.6866C62.8019 62.2789 61.2591 59.5999 58.6382 58.8071C54.5137 57.5595 51.7182 56.1973 48.4092 54.1086C46.5916 52.9612 44.2246 53.1313 42.3604 54.1119C39.8476 55.4335 37.0387 56.1103 34.6596 56.5933C31.3619 57.2628 29.3223 63.0515 31.7157 65.3965C36.6344 70.216 46.8767 76.0686 55.7407 75.0382C57.133 74.8764 58.2091 73.9038 58.6996 72.6623L61.8507 64.6866Z" fill="white"/>
</g>
<defs>
<filter id="filter0_d_86_1101" x="9.72583" y="9.34424" width="56.4076" height="73.813" filterUnits="userSpaceOnUse" color-interpolation-filters="sRGB">
<feFlood flood-opacity="0" result="BackgroundImageFix"/>
<feColorMatrix in="SourceAlpha" type="matrix" values="0 0 0 0 0 0 0 0 0 0 0 0 0 0 0 0 0 0 127 0" result="hardAlpha"/>
<feOffset dy="4"/>
<feGaussianBlur stdDeviation="2"/>
<feComposite in2="hardAlpha" operator="out"/>
<feColorMatrix type="matrix" values="0 0 0 0 0 0 0 0 0 0 0 0 0 0 0 0 0 0 0.25 0"/>
<feBlend mode="normal" in2="BackgroundImageFix" result="effect1_dropShadow_86_1101"/>
<feBlend mode="normal" in="SourceGraphic" in2="effect1_dropShadow_86_1101" result="shape"/>
</filter>
</defs>
</svg>
