<svg width="100" height="100" viewBox="0 0 100 100" fill="none" xmlns="http://www.w3.org/2000/svg">
<g clip-path="url(#clip0_86_977)">
<path d="M17.7083 8.06015e-06H82.2917C84.6178 -0.00224053 86.9215 0.466009 89.0709 1.37796C91.2204 2.28991 93.1734 3.62765 94.8182 5.31463C96.463 7.00162 97.7673 9.00471 98.6565 11.2093C99.5456 13.4139 100.002 15.7766 100 18.1624V81.8376C100.002 84.2234 99.5456 86.5861 98.6565 88.7907C97.7673 90.9953 96.463 92.9984 94.8182 94.6854C93.1734 96.3723 91.2204 97.7101 89.0709 98.622C86.9215 99.534 84.6178 100.002 82.2917 100H17.7083C15.3822 100.002 13.0785 99.534 10.9291 98.622C8.7796 97.7101 6.82658 96.3723 5.18177 94.6854C3.53696 92.9984 2.23266 90.9953 1.34351 88.7907C0.454359 86.5861 -0.00218452 84.2234 7.85865e-06 81.8376V18.1624C-0.00218452 15.7766 0.454359 13.4139 1.34351 11.2093C2.23266 9.00471 3.53696 7.00162 5.18177 5.31463C6.82658 3.62765 8.7796 2.28991 10.9291 1.37796C13.0785 0.466009 15.3822 -0.00224053 17.7083 8.06015e-06Z" fill="#F0F0F0"/>
<path d="M77.5406 26.2793L72.5226 82.4942L49.9662 88.7474L27.4721 82.5028L22.4592 26.2793H77.5406Z" fill="#E44D26"/>
<path d="M50 83.9675L68.2267 78.9145L72.5147 30.8762H50V83.9675Z" fill="#F16529"/>
<path d="M40.245 44.6676H49.9999V37.772H32.709L32.8739 39.6219L34.5689 58.6243H49.9999V51.7287H40.8752L40.245 44.6676ZM41.7991 62.0722H34.877L35.8429 72.8994L49.9681 76.8203L49.9999 76.8117V69.6374L49.9696 69.6454L42.2901 67.5717L41.7991 62.0722Z" fill="#EBEBEB"/>
<path d="M27.584 11H31.0882V14.4622H34.2939V11H37.7984V21.4843H34.2941V17.9735H31.0885V21.4843H27.5842V11H27.584ZM42.4064 14.4768H39.3218V11H48.9977V14.4768H45.9113V21.4843H42.407V14.4768H42.4068H42.4064ZM50.5333 11H54.1872L56.4348 14.6839L58.6803 11H62.3357V21.4843H58.8457V16.2877L56.4348 20.0154H56.3744L53.962 16.2877V21.4843H50.5333V11ZM64.0796 11H67.585V18.0189H72.5129V21.4843H64.0794V11H64.0796Z" fill="black"/>
<path d="M49.976 58.6243H58.4672L57.6666 67.5674L49.9758 69.6432V76.8171L64.1122 72.8994L64.2159 71.7343L65.8365 53.5804L66.0047 51.7287H49.976V58.6243ZM49.976 44.6507V44.6676H66.6322L66.7703 43.1177L67.0847 39.6219L67.2494 37.772H49.976V44.6509V44.6507Z" fill="white"/>
</g>
<defs>
<clipPath id="clip0_86_977">
<rect width="100" height="100" fill="white"/>
</clipPath>
</defs>
</svg>
