<svg width="27" height="26" viewBox="0 0 27 26" fill="none" xmlns="http://www.w3.org/2000/svg">
<g clip-path="url(#clip0_86_1178)">
<path fill-rule="evenodd" clip-rule="evenodd" d="M13.3821 0C6.18748 0 0.371338 5.85902 0.371338 13.1074C0.371338 18.9015 4.09794 23.806 9.26773 25.5419C9.91409 25.6724 10.1508 25.2598 10.1508 24.9128C10.1508 24.609 10.1295 23.5674 10.1295 22.4821C6.51026 23.2635 5.75658 20.9196 5.75658 20.9196C5.17494 19.4006 4.31313 19.0101 4.31313 19.0101C3.12854 18.2072 4.39942 18.2072 4.39942 18.2072C5.71343 18.294 6.40293 19.5526 6.40293 19.5526C7.56595 21.5489 9.44004 20.9849 10.194 20.6376C10.3016 19.7912 10.6465 19.2053 11.0127 18.8799C8.12602 18.576 5.08892 17.4476 5.08892 12.4129C5.08892 10.9806 5.60557 9.8088 6.42424 8.89746C6.29507 8.57201 5.8426 7.2263 6.55367 5.42519C6.55367 5.42519 7.65224 5.07791 10.1293 6.77063C11.1898 6.48372 12.2835 6.33776 13.3821 6.33653C14.4807 6.33653 15.6005 6.4886 16.6346 6.77063C19.112 5.07791 20.2105 5.42519 20.2105 5.42519C20.9216 7.2263 20.4688 8.57201 20.3397 8.89746C21.1799 9.8088 21.6753 10.9806 21.6753 12.4129C21.6753 17.4476 18.6382 18.5542 15.73 18.8799C16.204 19.2922 16.6131 20.0733 16.6131 21.3103C16.6131 23.068 16.5918 24.4787 16.5918 24.9126C16.5918 25.2598 16.8288 25.6724 17.4749 25.5421C22.6447 23.8057 26.3713 18.9015 26.3713 13.1074C26.3926 5.85902 20.5551 0 13.3821 0Z" fill="white"/>
</g>
<defs>
<clipPath id="clip0_86_1178">
<rect width="26" height="26" fill="white" transform="translate(0.371338)"/>
</clipPath>
</defs>
</svg>
