<svg width="27" height="26" viewBox="0 0 27 26" fill="none" xmlns="http://www.w3.org/2000/svg">
<path d="M24.4467 0H2.29087C1.22954 0 0.371338 0.837891 0.371338 1.87383V24.1211C0.371338 25.157 1.22954 26 2.29087 26H24.4467C25.5081 26 26.3713 25.157 26.3713 24.1262V1.87383C26.3713 0.837891 25.5081 0 24.4467 0ZM8.08501 22.1559H4.22564V9.74492H8.08501V22.1559ZM6.15532 8.05391C4.91626 8.05391 3.91587 7.05352 3.91587 5.81953C3.91587 4.58555 4.91626 3.58516 6.15532 3.58516C7.38931 3.58516 8.3897 4.58555 8.3897 5.81953C8.3897 7.04844 7.38931 8.05391 6.15532 8.05391ZM22.5272 22.1559H18.6729V16.123C18.6729 14.6859 18.6475 12.8324 16.667 12.8324C14.6612 12.8324 14.3565 14.4016 14.3565 16.0215V22.1559H10.5073V9.74492H14.2042V11.441H14.2549C14.7678 10.466 16.0272 9.43516 17.901 9.43516C21.8061 9.43516 22.5272 12.0047 22.5272 15.3461V22.1559V22.1559Z" fill="white"/>
</svg>
